<svg width="32" height="32" viewBox="0 0 32 32" fill="none" xmlns="http://www.w3.org/2000/svg">
  <g clip-path="url(#clip0_88_10)">
    <path
      d="M4.37734 7.04418C4.72734 6.69423 5.19466 6.48649 5.68894 6.46113C6.18323 6.43576 6.66936 6.59457 7.05334 6.90684L7.20534 7.04418L14.748 14.5868C15.098 14.9368 15.3057 15.4042 15.3311 15.8984C15.3564 16.3927 15.1976 16.8789 14.8853 17.2628L14.748 17.4148L7.20534 24.9575C6.84296 25.3212 6.3546 25.5316 5.84137 25.5452C5.32814 25.5587 4.82936 25.3744 4.44829 25.0303C4.06722 24.6863 3.83306 24.2088 3.79429 23.6969C3.75552 23.1849 3.9151 22.6777 4.24001 22.2802L4.37734 22.1282L10.5053 16.0002L4.37734 9.87218C4.0024 9.49712 3.79177 8.98851 3.79177 8.45818C3.79177 7.92785 4.0024 7.41923 4.37734 7.04418Z"
      fill="#4DF5FF"
    />
    <path
      d="M26.6634 21.9907C27.1771 21.9906 27.6712 22.1882 28.0432 22.5425C28.4151 22.8969 28.6365 23.3808 28.6614 23.8939C28.6862 24.407 28.5127 24.91 28.1767 25.2987C27.8407 25.6873 27.368 25.9318 26.8567 25.9813L26.6634 25.9907H15.9967C15.4831 25.9904 14.9892 25.7926 14.6175 25.4381C14.2458 25.0837 14.0247 24.5998 14 24.0868C13.9753 23.5737 14.149 23.0709 14.4849 22.6824C14.8209 22.2939 15.2935 22.0496 15.8047 22L15.9967 21.9907H26.6634Z"
      fill="#A9D5C4"
    />
    <g filter="url(#filter0_dd_88_10)">
      <circle cx="27" cy="24" r="2" fill="#4DF5FF" />
    </g>
  </g>
  <defs>
    <filter
      id="filter0_dd_88_10"
      x="21"
      y="22"
      width="12"
      height="12"
      filterUnits="userSpaceOnUse"
      color-interpolation-filters="sRGB"
    >
      <feFlood flood-opacity="0" result="BackgroundImageFix" />
      <feColorMatrix
        in="SourceAlpha"
        type="matrix"
        values="0 0 0 0 0 0 0 0 0 0 0 0 0 0 0 0 0 0 127 0"
        result="hardAlpha"
      />
      <feOffset dy="4" />
      <feGaussianBlur stdDeviation="2" />
      <feComposite in2="hardAlpha" operator="out" />
      <feColorMatrix type="matrix" values="0 0 0 0 0 0 0 0 0 0 0 0 0 0 0 0 0 0 0.25 0" />
      <feBlend mode="normal" in2="BackgroundImageFix" result="effect1_dropShadow_88_10" />
      <feColorMatrix
        in="SourceAlpha"
        type="matrix"
        values="0 0 0 0 0 0 0 0 0 0 0 0 0 0 0 0 0 0 127 0"
        result="hardAlpha"
      />
      <feOffset dy="4" />
      <feGaussianBlur stdDeviation="2" />
      <feComposite in2="hardAlpha" operator="out" />
      <feColorMatrix type="matrix" values="0 0 0 0 0 0 0 0 0 0 0 0 0 0 0 0 0 0 0.25 0" />
      <feBlend mode="normal" in2="effect1_dropShadow_88_10" result="effect2_dropShadow_88_10" />
      <feBlend mode="normal" in="SourceGraphic" in2="effect2_dropShadow_88_10" result="shape" />
    </filter>
    <clipPath id="clip0_88_10">
      <rect width="32" height="32" fill="white" />
    </clipPath>
  </defs>
</svg>
