<svg width="32" height="32" viewBox="0 0 32 32" fill="none" xmlns="http://www.w3.org/2000/svg">
  <g clip-path="url(#clip0_28_2)">
    <mask
      id="mask0_28_2"
      style="mask-type: luminance"
      maskUnits="userSpaceOnUse"
      x="0"
      y="0"
      width="32"
      height="32"
    >
      <path d="M32 0H0V32H32V0Z" fill="white" />
    </mask>
    <g mask="url(#mask0_28_2)">
      <path
        d="M4.37734 7.04418C4.72734 6.69423 5.19466 6.48649 5.68894 6.46113C6.18323 6.43576 6.66936 6.59457 7.05334 6.90684L7.20534 7.04418L14.748 14.5868C15.098 14.9368 15.3057 15.4042 15.3311 15.8984C15.3564 16.3927 15.1976 16.8789 14.8853 17.2628L14.748 17.4148L7.20534 24.9575C6.84296 25.3212 6.3546 25.5316 5.84137 25.5452C5.32814 25.5587 4.82936 25.3744 4.44829 25.0303C4.06722 24.6863 3.83306 24.2088 3.79429 23.6969C3.75552 23.1849 3.9151 22.6777 4.24001 22.2802L4.37734 22.1282L10.5053 16.0002L4.37734 9.87218C4.0024 9.49712 3.79177 8.98851 3.79177 8.45818C3.79177 7.92785 4.0024 7.41923 4.37734 7.04418Z"
        fill="#4DF5FF"
      />
      <path
        d="M26.6635 21.9907C27.1772 21.9906 27.6713 22.1882 28.0433 22.5425C28.4152 22.8969 28.6366 23.3808 28.6615 23.8939C28.6863 24.407 28.5128 24.91 28.1768 25.2987C27.8408 25.6873 27.3681 25.9318 26.8568 25.9813L26.6635 25.9907H15.9968C15.4832 25.9904 14.9893 25.7926 14.6176 25.4381C14.2459 25.0837 14.0248 24.5998 14.0001 24.0868C13.9754 23.5737 14.1491 23.0709 14.485 22.6824C14.821 22.2939 15.2936 22.0496 15.8048 22L15.9968 21.9907H26.6635Z"
        fill="#A9D5C4"
      />
      <g filter="url(#filter0_d_28_2)">
        <path
          d="M27 26C28.1046 26 29 25.1046 29 24C29 22.8954 28.1046 22 27 22C25.8954 22 25 22.8954 25 24C25 25.1046 25.8954 26 27 26Z"
          fill="#4DF5FF"
        />
      </g>
    </g>
  </g>
  <defs>
    <filter
      id="filter0_d_28_2"
      x="21"
      y="22"
      width="12"
      height="12"
      filterUnits="userSpaceOnUse"
      color-interpolation-filters="sRGB"
    >
      <feFlood flood-opacity="0" result="BackgroundImageFix" />
      <feColorMatrix
        in="SourceAlpha"
        type="matrix"
        values="0 0 0 0 0 0 0 0 0 0 0 0 0 0 0 0 0 0 127 0"
        result="hardAlpha"
      />
      <feOffset dy="4" />
      <feGaussianBlur stdDeviation="2" />
      <feComposite in2="hardAlpha" operator="out" />
      <feColorMatrix type="matrix" values="0 0 0 0 0 0 0 0 0 0 0 0 0 0 0 0 0 0 0.25 0" />
      <feBlend mode="normal" in2="BackgroundImageFix" result="effect1_dropShadow_28_2" />
      <feBlend mode="normal" in="SourceGraphic" in2="effect1_dropShadow_28_2" result="shape" />
    </filter>
    <clipPath id="clip0_28_2">
      <rect width="32" height="32" fill="white" />
    </clipPath>
  </defs>
</svg>
