<svg width="98" height="32" viewBox="0 0 98 32" fill="none" xmlns="http://www.w3.org/2000/svg">
  <g clip-path="url(#clip0_130_5)">
    <path
      d="M4.37734 7.04418C4.72734 6.69423 5.19466 6.48649 5.68894 6.46113C6.18323 6.43576 6.66936 6.59457 7.05334 6.90684L7.20534 7.04418L14.748 14.5868C15.098 14.9368 15.3057 15.4042 15.3311 15.8984C15.3564 16.3927 15.1976 16.8789 14.8853 17.2628L14.748 17.4148L7.20534 24.9575C6.84296 25.3212 6.3546 25.5316 5.84137 25.5452C5.32814 25.5587 4.82936 25.3744 4.44829 25.0303C4.06722 24.6863 3.83306 24.2088 3.79429 23.6969C3.75552 23.1849 3.9151 22.6777 4.24001 22.2802L4.37734 22.1282L10.5053 16.0002L4.37734 9.87218C4.0024 9.49712 3.79177 8.98851 3.79177 8.45818C3.79177 7.92785 4.0024 7.41923 4.37734 7.04418Z"
      fill="#4DF5FF"
    />
    <path
      d="M26.6634 21.9907C27.1771 21.9906 27.6712 22.1882 28.0432 22.5425C28.4151 22.8969 28.6365 23.3808 28.6614 23.8939C28.6862 24.407 28.5127 24.91 28.1767 25.2987C27.8407 25.6873 27.368 25.9318 26.8567 25.9813L26.6634 25.9907H15.9967C15.4831 25.9904 14.9892 25.7926 14.6175 25.4381C14.2458 25.0837 14.0247 24.5998 14 24.0868C13.9753 23.5737 14.149 23.0709 14.4849 22.6824C14.8209 22.2939 15.2935 22.0496 15.8047 22L15.9967 21.9907H26.6634Z"
      fill="#A9D5C4"
    />
    <circle cx="27" cy="24" r="2" fill="#4DF5FF" />
  </g>
  <path
    d="M40.962 25.176C40.0087 25.176 39.114 24.9267 38.278 24.428C37.4567 23.9147 36.7967 23.2253 36.298 22.36C35.7993 21.48 35.55 20.5047 35.55 19.434C35.55 18.378 35.7993 17.4247 36.298 16.574C36.7967 15.7087 37.464 15.034 38.3 14.55C39.136 14.066 40.0233 13.824 40.962 13.824C41.7247 13.824 42.4287 14.0367 43.074 14.462C43.734 14.8873 44.2327 15.5253 44.57 16.376V13.824H49.19V25H44.57V22.954C43.8367 24.4353 42.634 25.176 40.962 25.176ZM42.392 21.7C42.9787 21.7 43.4773 21.4947 43.888 21.084C44.3133 20.6587 44.5407 20.16 44.57 19.588V19.412C44.5407 18.8253 44.306 18.3267 43.866 17.916C43.4407 17.5053 42.9493 17.3 42.392 17.3C41.776 17.3 41.248 17.52 40.808 17.96C40.3827 18.3853 40.17 18.8987 40.17 19.5C40.17 20.116 40.39 20.6367 40.83 21.062C41.27 21.4873 41.7907 21.7 42.392 21.7ZM55.2904 25.176C54.0584 25.176 53.0977 24.78 52.4084 23.988C51.719 23.196 51.3744 22.118 51.3744 20.754V13.978H56.0384V20.556C56.0384 20.8933 56.1264 21.1573 56.3024 21.348C56.493 21.524 56.735 21.612 57.0284 21.612C57.3217 21.612 57.6224 21.524 57.9304 21.348L58.1724 24.406C57.8497 24.6553 57.4244 24.846 56.8964 24.978C56.383 25.11 55.8477 25.176 55.2904 25.176ZM53.7064 12.328C53.017 12.328 52.4304 12.1153 51.9464 11.69C51.477 11.25 51.2424 10.7147 51.2424 10.084C51.2424 9.45333 51.4917 8.92533 51.9904 8.5C52.489 8.07467 53.061 7.862 53.7064 7.862C54.381 7.862 54.9604 8.082 55.4444 8.522C55.943 8.962 56.1924 9.48267 56.1924 10.084C56.1924 10.7293 55.943 11.2647 55.4444 11.69C54.9457 12.1153 54.3664 12.328 53.7064 12.328ZM70.2995 25.176C69.3168 25.176 68.5248 25.0513 67.9235 24.802C67.3368 24.538 66.8528 24.1053 66.4715 23.504C66.0902 22.9027 65.7528 22.0447 65.4595 20.93L64.1615 21.964V25H59.4975L59.5195 10.502L64.1835 9.82L64.1615 17.344L69.8155 12.724L72.3455 16.178L68.8035 18.642C68.9795 19.7567 69.2288 20.534 69.5515 20.974C69.8888 21.414 70.3802 21.634 71.0255 21.634C71.2895 21.634 71.6048 21.59 71.9715 21.502L71.5315 25.11C71.0915 25.154 70.6808 25.176 70.2995 25.176ZM78.3868 25.176C77.0961 25.176 76.0914 24.8093 75.3727 24.076C74.6541 23.328 74.2948 22.3013 74.2948 20.996V16.706H72.8868V13.978H74.6248L76.6708 9.82H78.8928V13.978H81.4448V16.706H78.8928V20.446C78.8928 20.8127 79.0101 21.0987 79.2448 21.304C79.4794 21.5093 79.8094 21.612 80.2348 21.612C80.6308 21.612 80.9901 21.524 81.3128 21.348L81.4888 24.428C81.1221 24.648 80.6454 24.8313 80.0588 24.978C79.4868 25.11 78.9294 25.176 78.3868 25.176ZM91.4233 25.176C89.7366 25.176 88.5413 24.4353 87.8373 22.954V25H83.1733V10.502L87.8373 9.82V16.046C88.204 15.2687 88.6806 14.704 89.2673 14.352C89.854 14 90.5653 13.824 91.4013 13.824C92.384 13.824 93.286 14.0733 94.1073 14.572C94.9433 15.056 95.596 15.7307 96.0653 16.596C96.5493 17.4613 96.7913 18.4293 96.7913 19.5C96.7913 20.556 96.542 21.5167 96.0433 22.382C95.5593 23.2473 94.8993 23.9293 94.0633 24.428C93.242 24.9267 92.362 25.176 91.4233 25.176ZM90.0153 21.7C90.6166 21.7 91.13 21.48 91.5553 21.04C91.9806 20.6 92.1933 20.0867 92.1933 19.5C92.1933 18.884 91.9733 18.3633 91.5333 17.938C91.108 17.5127 90.602 17.3 90.0153 17.3C89.414 17.3 88.9006 17.5127 88.4753 17.938C88.05 18.3487 87.8373 18.84 87.8373 19.412V19.5C87.8373 20.116 88.05 20.6367 88.4753 21.062C88.9153 21.4873 89.4286 21.7 90.0153 21.7Z"
    fill="#4DF5FF"
  />
  <defs>
    <clipPath id="clip0_130_5">
      <rect width="32" height="32" fill="white" />
    </clipPath>
  </defs>
</svg>
