<svg width="575" height="249" viewBox="0 0 575 249" fill="none" xmlns="http://www.w3.org/2000/svg">
  <rect width="575" height="240" rx="17" fill="#0C1222" />
  <path
    d="M337.008 173.048C320.965 173.048 311.152 165.624 307.568 150.776L304.368 137.592H298.352V171H270.32V82.936H309.104C316.443 82.936 322.885 84.0453 328.432 86.264C334.064 88.3973 338.416 91.4267 341.488 95.352C344.56 99.2773 346.096 103.8 346.096 108.92C346.096 114.637 344.688 119.459 341.872 123.384C339.141 127.224 334.875 130.381 329.072 132.856C329.669 136.099 330.352 139.043 331.12 141.688C332.144 144.931 333.552 147.192 335.344 148.472C337.136 149.752 339.739 150.392 343.152 150.392C344.347 150.392 346.224 150.221 348.784 149.88V170.744C344.773 172.28 340.848 173.048 337.008 173.048ZM303.216 119.672C309.531 119.672 313.968 118.989 316.528 117.624C319.173 116.173 320.496 113.741 320.496 110.328C320.496 107.427 319.429 105.336 317.296 104.056C315.163 102.691 311.792 102.008 307.184 102.008H298.352V119.672H303.216ZM390.927 172.024C383.844 172.024 377.53 170.616 371.983 167.8C366.522 164.899 362.255 160.973 359.183 156.024C356.111 150.989 354.575 145.315 354.575 139C354.575 132.515 356.154 126.755 359.311 121.72C362.468 116.685 366.735 112.803 372.111 110.072C377.487 107.341 383.46 105.976 390.031 105.976C396.346 105.976 401.722 107.384 406.159 110.2C410.682 112.931 414.052 116.685 416.271 121.464C418.49 126.157 419.599 131.448 419.599 137.336C419.599 138.872 419.514 139.981 419.343 140.664L380.943 145.656C381.967 148.643 383.631 150.819 385.935 152.184C388.239 153.464 391.268 154.104 395.023 154.104C400.826 154.104 407.098 152.611 413.839 149.624L417.039 166.776C409.103 170.275 400.399 172.024 390.927 172.024ZM399.759 129.528C398.394 124.152 395.151 121.464 390.031 121.464C386.959 121.464 384.527 122.616 382.735 124.92C380.943 127.224 380.004 130.211 379.919 133.88L399.759 129.528ZM457.188 172.024C451.641 172.024 446.436 170.573 441.572 167.672C436.793 164.685 432.953 160.675 430.052 155.64C427.151 150.52 425.7 144.845 425.7 138.616C425.7 132.472 427.151 126.925 430.052 121.976C432.953 116.941 436.836 113.016 441.7 110.2C446.564 107.384 451.727 105.976 457.188 105.976C461.625 105.976 465.721 107.213 469.476 109.688C473.316 112.163 476.217 115.875 478.18 120.824V105.976H505.06V171H478.18V159.096C473.913 167.715 466.916 172.024 457.188 172.024ZM465.508 151.8C468.921 151.8 471.823 150.605 474.212 148.216C476.687 145.741 478.009 142.84 478.18 139.512V138.488C478.009 135.075 476.644 132.173 474.084 129.784C471.609 127.395 468.751 126.2 465.508 126.2C461.924 126.2 458.852 127.48 456.292 130.04C453.817 132.515 452.58 135.501 452.58 139C452.58 142.584 453.86 145.613 456.42 148.088C458.98 150.563 462.009 151.8 465.508 151.8Z"
    fill="#4DF5FF"
  />
  <path
    d="M57.4158 46.3926C60.0407 43.768 63.5456 42.21 67.2528 42.0197C70.9599 41.8295 74.6059 43.0205 77.4858 45.3626L78.6258 46.3926L135.196 102.963C137.82 105.588 139.378 109.093 139.569 112.8C139.759 116.507 138.568 120.153 136.226 123.033L135.196 124.173L78.6258 180.743C75.9079 183.47 72.2452 185.048 68.396 185.15C64.5468 185.252 60.8059 183.869 57.9479 181.289C55.0899 178.708 53.3337 175.128 53.0429 171.288C52.7521 167.448 53.949 163.644 56.3858 160.663L57.4158 159.523L103.376 113.563L57.4158 67.6026C54.6037 64.7897 53.024 60.9751 53.024 56.9976C53.024 53.0202 54.6037 49.2055 57.4158 46.3926Z"
    fill="#4DF5FF"
  />
  <path
    d="M224.561 158.491C228.414 158.491 232.12 159.973 234.909 162.63C237.699 165.288 239.359 168.917 239.546 172.765C239.732 176.614 238.431 180.387 235.911 183.301C233.391 186.216 229.846 188.049 226.011 188.421L224.561 188.491H144.561C140.709 188.489 137.005 187.005 134.217 184.347C131.429 181.689 129.771 178.06 129.586 174.212C129.401 170.364 130.703 166.593 133.223 163.679C135.743 160.766 139.287 158.933 143.121 158.561L144.561 158.491H224.561Z"
    fill="#A9D5C4"
  />
  <g filter="url(#filter0_dd_24_30)">
    <circle cx="227.086" cy="173.562" r="15" fill="#4DF5FF" />
  </g>
  <defs>
    <filter
      id="filter0_dd_24_30"
      x="182.086"
      y="158.562"
      width="90"
      height="90"
      filterUnits="userSpaceOnUse"
      color-interpolation-filters="sRGB"
    >
      <feFlood flood-opacity="0" result="BackgroundImageFix" />
      <feColorMatrix
        in="SourceAlpha"
        type="matrix"
        values="0 0 0 0 0 0 0 0 0 0 0 0 0 0 0 0 0 0 127 0"
        result="hardAlpha"
      />
      <feOffset dy="30" />
      <feGaussianBlur stdDeviation="15" />
      <feComposite in2="hardAlpha" operator="out" />
      <feColorMatrix type="matrix" values="0 0 0 0 0 0 0 0 0 0 0 0 0 0 0 0 0 0 0.25 0" />
      <feBlend mode="normal" in2="BackgroundImageFix" result="effect1_dropShadow_24_30" />
      <feColorMatrix
        in="SourceAlpha"
        type="matrix"
        values="0 0 0 0 0 0 0 0 0 0 0 0 0 0 0 0 0 0 127 0"
        result="hardAlpha"
      />
      <feOffset dy="30" />
      <feGaussianBlur stdDeviation="15" />
      <feComposite in2="hardAlpha" operator="out" />
      <feColorMatrix type="matrix" values="0 0 0 0 0 0 0 0 0 0 0 0 0 0 0 0 0 0 0.25 0" />
      <feBlend mode="normal" in2="effect1_dropShadow_24_30" result="effect2_dropShadow_24_30" />
      <feBlend mode="normal" in="SourceGraphic" in2="effect2_dropShadow_24_30" result="shape" />
    </filter>
  </defs>
</svg>
